<mxfile host="Electron" modified="2024-08-07T18:16:45.848Z" agent="Mozilla/5.0 (Windows NT 10.0; Win64; x64) AppleWebKit/537.36 (KHTML, like Gecko) draw.io/24.0.4 Chrome/120.0.6099.109 Electron/28.1.0 Safari/537.36" etag="Khj9QKitvDVwI-vd3-2p" version="24.0.4" type="device">
  <diagram name="Page-1" id="TERpUcxfxY38UNY2LLGQ">
    <mxGraphModel dx="1195" dy="703" grid="1" gridSize="10" guides="1" tooltips="1" connect="1" arrows="1" fold="1" page="1" pageScale="1" pageWidth="850" pageHeight="1100" math="0" shadow="0">
      <root>
        <mxCell id="0" />
        <mxCell id="1" parent="0" />
        <mxCell id="guDOAPgbb53cgDNgZS7i-1" value="hello" style="rounded=1;whiteSpace=wrap;html=1;fillColor=#f8cecc;strokeColor=#b85450;" vertex="1" parent="1">
          <mxGeometry x="250" y="210" width="120" height="40" as="geometry" />
        </mxCell>
        <mxCell id="guDOAPgbb53cgDNgZS7i-2" value="string - string to say hi to" style="text;html=1;align=center;verticalAlign=middle;whiteSpace=wrap;rounded=0;fillColor=#fff2cc;strokeColor=#d6b656;" vertex="1" parent="1">
          <mxGeometry x="390" y="215" width="150" height="30" as="geometry" />
        </mxCell>
        <mxCell id="guDOAPgbb53cgDNgZS7i-3" value="cftarget" style="rounded=1;whiteSpace=wrap;html=1;fillColor=#f8cecc;strokeColor=#b85450;" vertex="1" parent="1">
          <mxGeometry x="250" y="470" width="120" height="40" as="geometry" />
        </mxCell>
        <mxCell id="guDOAPgbb53cgDNgZS7i-4" value="- get cloud foundry target&lt;blockquote style=&quot;margin: 0 0 0 40px; border: none; padding: 0px;&quot;&gt;&lt;div&gt;- check cli version&lt;/div&gt;&lt;div&gt;&lt;span style=&quot;white-space: pre;&quot;&gt;&#x9;&lt;/span&gt;- exec async (cf -v)&lt;/div&gt;&lt;div&gt;- get cf authorization&lt;/div&gt;&lt;div&gt;&lt;span style=&quot;white-space: pre;&quot;&gt;&#x9;&lt;/span&gt;-&amp;nbsp;&lt;span style=&quot;background-color: initial;&quot;&gt;exec async&lt;/span&gt;&lt;span style=&quot;background-color: initial;&quot;&gt;&amp;nbsp;(&lt;/span&gt;&lt;span style=&quot;background-color: initial;&quot;&gt;cf oauth-token)&lt;/span&gt;&lt;/div&gt;&lt;div&gt;- get cf target from cli&lt;/div&gt;&lt;div&gt;&lt;span style=&quot;white-space: pre;&quot;&gt;&#x9;&lt;/span&gt;-&amp;nbsp;&lt;span style=&quot;background-color: initial;&quot;&gt;exec async&lt;/span&gt;&lt;span style=&quot;background-color: initial;&quot;&gt;&amp;nbsp;(&lt;/span&gt;&lt;span style=&quot;background-color: initial;&quot;&gt;cf target)&lt;/span&gt;&lt;/div&gt;&lt;/blockquote&gt;" style="text;html=1;align=left;verticalAlign=middle;whiteSpace=wrap;rounded=0;fillColor=#fff2cc;strokeColor=#d6b656;" vertex="1" parent="1">
          <mxGeometry x="400" y="470" width="240" height="120" as="geometry" />
        </mxCell>
        <mxCell id="guDOAPgbb53cgDNgZS7i-5" value="cfoauth" style="rounded=1;whiteSpace=wrap;html=1;fillColor=#f8cecc;strokeColor=#b85450;" vertex="1" parent="1">
          <mxGeometry x="250" y="380" width="120" height="40" as="geometry" />
        </mxCell>
        <mxCell id="guDOAPgbb53cgDNgZS7i-7" value="cfv" style="rounded=1;whiteSpace=wrap;html=1;fillColor=#f8cecc;strokeColor=#b85450;" vertex="1" parent="1">
          <mxGeometry x="250" y="290" width="120" height="40" as="geometry" />
        </mxCell>
        <mxCell id="guDOAPgbb53cgDNgZS7i-9" value="&lt;div&gt;- check cli version&lt;/div&gt;&lt;div&gt;&lt;span style=&quot;white-space: normal;&quot;&gt;&lt;span style=&quot;white-space:pre&quot;&gt;&#x9;&lt;/span&gt;- exec async (cf -v)&lt;/span&gt;&lt;/div&gt;" style="text;html=1;align=left;verticalAlign=middle;whiteSpace=wrap;rounded=0;fillColor=#fff2cc;strokeColor=#d6b656;" vertex="1" parent="1">
          <mxGeometry x="400" y="290" width="180" height="40" as="geometry" />
        </mxCell>
        <mxCell id="guDOAPgbb53cgDNgZS7i-10" value="&lt;div&gt;-&amp;nbsp;&lt;span style=&quot;background-color: initial;&quot;&gt;get cf authorization&lt;/span&gt;&lt;/div&gt;&lt;div&gt;&lt;span style=&quot;white-space: normal;&quot;&gt;&lt;span style=&quot;white-space:pre&quot;&gt;&#x9;&lt;/span&gt;-&amp;nbsp;&lt;/span&gt;&lt;span style=&quot;background-color: initial;&quot;&gt;exec async&lt;/span&gt;&lt;span style=&quot;background-color: initial;&quot;&gt;&amp;nbsp;(&lt;/span&gt;&lt;span style=&quot;background-color: initial;&quot;&gt;cf oauth-token)&lt;/span&gt;&lt;/div&gt;" style="text;html=1;align=left;verticalAlign=middle;whiteSpace=wrap;rounded=0;fillColor=#fff2cc;strokeColor=#d6b656;" vertex="1" parent="1">
          <mxGeometry x="400" y="380" width="190" height="40" as="geometry" />
        </mxCell>
        <mxCell id="guDOAPgbb53cgDNgZS7i-11" value="cfservice" style="rounded=1;whiteSpace=wrap;html=1;fillColor=#f8cecc;strokeColor=#b85450;" vertex="1" parent="1">
          <mxGeometry x="250" y="640" width="120" height="40" as="geometry" />
        </mxCell>
        <mxCell id="guDOAPgbb53cgDNgZS7i-12" value="&lt;div&gt;&lt;div&gt;&lt;b&gt;input: serviceName,&amp;nbsp;&lt;span style=&quot;background-color: initial;&quot;&gt;servicePlan,&amp;nbsp;&lt;/span&gt;&lt;span style=&quot;background-color: initial;&quot;&gt;serviceInstanceName&lt;/span&gt;&lt;/b&gt;&lt;/div&gt;&lt;/div&gt;- get service&lt;div&gt;&lt;span style=&quot;white-space: pre;&quot;&gt;&#x9;&lt;/span&gt;- cf &quot;curl&quot; &quot;/v3/service_instances?names=serviceInstanceName&amp;amp;space_guids=spaceGuid&amp;amp;organization_guids=orgGuid&quot;&lt;br&gt;&lt;/div&gt;&lt;div&gt;- create service&lt;/div&gt;&lt;div&gt;&lt;span style=&quot;white-space: pre;&quot;&gt;&#x9;&lt;/span&gt;- get service plan&lt;br&gt;&lt;/div&gt;&lt;div&gt;&lt;span style=&quot;white-space: pre;&quot;&gt;&#x9;&lt;span style=&quot;white-space: pre;&quot;&gt;&#x9;&lt;/span&gt;&lt;/span&gt;-&amp;nbsp;&lt;span style=&quot;background-color: initial;&quot;&gt;cf &quot;curl&quot; &quot;/v3/service_plans?names=planName&amp;amp;space_guids=spaceGuid&amp;amp;organization_guids=orgGuid&quot;&amp;amp;&lt;/span&gt;&lt;span style=&quot;background-color: initial;&quot;&gt;service_offering_names=&quot;&lt;/span&gt;&lt;span style=&quot;background-color: initial;&quot;&gt;serviceOfferingName&quot;&lt;/span&gt;&lt;br&gt;&lt;/div&gt;&lt;div&gt;&lt;span style=&quot;background-color: initial;&quot;&gt;&lt;span style=&quot;white-space: pre;&quot;&gt;&#x9;&lt;/span&gt;- create service instance&lt;br&gt;&lt;/span&gt;&lt;/div&gt;&lt;div&gt;&lt;span style=&quot;background-color: initial;&quot;&gt;&lt;span style=&quot;white-space: pre;&quot;&gt;&#x9;&lt;span style=&quot;white-space: pre;&quot;&gt;&#x9;&lt;/span&gt;&lt;/span&gt;-&amp;nbsp;&lt;/span&gt;&lt;span style=&quot;background-color: initial;&quot;&gt;/v3/service_instances&lt;/span&gt;&lt;span style=&quot;background-color: initial;&quot;&gt;&lt;br&gt;&lt;/span&gt;&lt;/div&gt;&lt;div&gt;&lt;span style=&quot;background-color: initial;&quot;&gt;&lt;span style=&quot;white-space: pre;&quot;&gt;&#x9;&lt;/span&gt;-&amp;nbsp;&lt;/span&gt;&lt;span style=&quot;background-color: initial;&quot;&gt;get service&lt;/span&gt;&lt;span style=&quot;background-color: initial;&quot;&gt;&lt;br&gt;&lt;/span&gt;&lt;/div&gt;&lt;div&gt;&lt;span style=&quot;white-space: pre;&quot;&gt;&#x9;&lt;/span&gt;- cf &quot;curl&quot; &quot;/v3/service_instances?names=serviceInstanceName&amp;amp;space_guids=spaceGuid&amp;amp;organization_guids=orgGuid&quot;&lt;/div&gt;&lt;div&gt;- create service instance key&lt;/div&gt;&lt;div&gt;&lt;span style=&quot;white-space: pre;&quot;&gt;&#x9;&lt;/span&gt;- serviceInstanceName + &quot;-key&quot;&lt;br&gt;&lt;/div&gt;&lt;div&gt;&lt;span style=&quot;white-space: pre;&quot;&gt;&#x9;&lt;/span&gt;-&amp;nbsp;/v3/service_credential_bindings&lt;br&gt;&lt;/div&gt;&lt;div&gt;&lt;b&gt;returns service key details&lt;/b&gt;&lt;/div&gt;" style="text;html=1;align=left;verticalAlign=middle;whiteSpace=wrap;rounded=0;fillColor=#fff2cc;strokeColor=#d6b656;" vertex="1" parent="1">
          <mxGeometry x="400" y="640" width="890" height="220" as="geometry" />
        </mxCell>
      </root>
    </mxGraphModel>
  </diagram>
</mxfile>
